<svg width="145" height="40" viewBox="0 0 145 40" fill="none" xmlns="http://www.w3.org/2000/svg">
<path fill-rule="evenodd" clip-rule="evenodd" d="M7.95657 13.3553C8.59419 11.8016 10.0635 10.775 11.7269 10.775C13.3903 10.775 14.8597 11.8016 15.4973 13.3553L23.4815 33.248H17.5488L15.9686 29.1974H7.34666L5.79416 33.248H0L7.95657 13.3553ZM11.6992 17.3782L8.92688 24.7305H14.4161L11.6992 17.3782Z" fill="white"/>
<path d="M28.2224 20.1526H23.3432C22.2619 20.1526 21.3748 19.2647 21.3748 18.1827C21.3748 17.1006 22.2619 16.2129 23.3432 16.2129H33.268V33.248H28.2224V20.1526Z" fill="white"/>
<path d="M64.4014 20.1526H59.522C58.4408 20.1526 57.5537 19.2647 57.5537 18.1827C57.5537 17.1006 58.4408 16.2129 59.522 16.2129H69.4469V33.248H64.4014V20.1526Z" fill="white"/>
<path d="M74.3535 30.529L83.0586 20.1526H76.6822C75.601 20.1526 74.7139 19.2647 74.7139 18.1827C74.7139 17.1006 75.601 16.2129 76.6822 16.2129H90.1002V18.904L81.3397 29.2805H88.3537C89.4626 29.2805 90.3498 30.1683 90.3498 31.2781C90.3498 32.3878 89.4626 33.2757 88.3537 33.2757H74.3535V30.529Z" fill="white"/>
<path d="M92.2073 24.7026C92.2073 19.1261 96.5044 15.7689 101.079 15.7689C106.318 15.7689 109.091 19.5977 109.091 23.9536C109.091 24.7581 109.091 25.535 109.008 26.2287H95.9776V22.8439H105.487L104.683 23.8149C104.683 21.0681 103.491 19.6532 101.245 19.6532C98.7499 19.6532 97.1142 21.3456 97.1142 24.7305C97.1142 28.254 99.0271 29.8077 102.354 29.8077C103.407 29.8077 104.461 29.6135 105.431 29.2528C106.263 28.9476 107.206 29.2805 107.649 30.0574C108.148 30.9729 107.76 32.166 106.79 32.5821C105.209 33.2757 103.324 33.6642 101.661 33.6642C96.338 33.6364 92.2073 30.3626 92.2073 24.7026Z" fill="white"/>
<path d="M56.8329 11.7738H40.3652C39.2286 11.7738 38.3137 10.8583 38.3137 9.72075C38.3137 8.58322 39.2286 7.66766 40.3652 7.66766H56.8329C57.9694 7.66766 58.8843 8.58322 58.8843 9.72075C58.8843 10.8583 57.9694 11.7738 56.8329 11.7738Z" fill="white"/>
<path d="M30.5234 13.0778C32.376 13.0778 33.8779 11.5748 33.8779 9.72072C33.8779 7.86666 32.376 6.36365 30.5234 6.36365C28.6707 6.36365 27.1688 7.86666 27.1688 9.72072C27.1688 11.5748 28.6707 13.0778 30.5234 13.0778Z" fill="white"/>
<path d="M66.7024 13.0778C68.5551 13.0778 70.0569 11.5748 70.0569 9.72072C70.0569 7.86666 68.5551 6.36365 66.7024 6.36365C64.8497 6.36365 63.3479 7.86666 63.3479 9.72072C63.3479 11.5748 64.8497 13.0778 66.7024 13.0778Z" fill="white"/>
<path d="M49.1531 15.7689C46.852 15.7689 45.1054 16.7678 43.6916 18.044C43.6361 16.7123 42.5272 15.6581 41.1687 15.6581C39.7826 15.6581 38.6459 16.7955 38.6459 18.1827V19.2093V33.2202H43.6916V22.067C44.8282 20.8185 45.7986 20.0971 47.1292 20.0971C48.9867 20.0971 49.6244 21.096 49.6244 23.3709V33.248H54.67V22.7051C54.6976 18.4047 53.0066 15.7689 49.1531 15.7689Z" fill="white"/>
</svg>
